<svg version="1.1" id="Layer_1" xmlns="http://www.w3.org/2000/svg" xmlns:xlink="http://www.w3.org/1999/xlink" x="0px" y="0px"
	 width="100%" viewBox="0 0 400 600" enable-background="new 0 0 400 600" xml:space="preserve">
<path fill="#FFFFFF" opacity="1.000000" stroke="none" 
	d="
M245.000000,601.000000 
	C163.333359,601.000000 82.166702,601.000000 1.000044,601.000000 
	C1.000029,401.000061 1.000029,201.000137 1.000015,1.000151 
	C134.333237,1.000101 267.666473,1.000101 400.999756,1.000050 
	C400.999847,200.999863 400.999847,400.999725 400.999939,600.999756 
	C349.166656,601.000000 297.333344,601.000000 245.000000,601.000000 
M253.715408,254.820190 
	C257.161987,242.537781 260.655457,230.268295 264.040527,217.968964 
	C266.838562,207.802460 269.508514,197.600693 272.304352,187.156174 
	C268.231537,187.156174 264.770050,187.156174 261.029510,187.156174 
	C258.003571,199.833725 255.000305,212.416199 251.581085,225.614349 
	C250.228348,231.621597 248.875626,237.628860 247.522888,243.636124 
	C247.247986,243.610840 246.973099,243.585571 246.698212,243.560287 
	C241.867996,224.713333 237.037796,205.866364 232.260666,187.226532 
	C227.714996,187.226532 223.763504,187.226532 219.544785,187.226532 
	C214.819977,206.033203 210.134048,224.685089 205.179489,244.406265 
	C200.296478,224.457764 195.708389,205.714127 191.163834,187.148300 
	C186.797592,187.148300 183.155365,187.148300 179.105835,187.148300 
	C185.386673,209.900314 191.597488,232.398727 197.808655,254.898392 
	C202.689178,254.898392 207.166687,254.898392 212.110413,254.898392 
	C216.624252,236.440506 221.143143,217.961990 225.679214,199.413162 
	C230.161011,217.880417 234.648071,236.369385 239.129181,254.833801 
	C244.038895,254.833801 248.518906,254.833801 253.715408,254.820190 
M124.027153,189.463470 
	C109.146080,198.433945 103.047272,216.791229 108.915764,234.948471 
	C113.255150,248.374634 124.386169,256.884918 137.765182,257.005432 
	C151.480881,257.128998 163.293671,248.917694 167.085007,235.154068 
	C168.891876,228.594620 169.480042,221.282043 168.742096,214.515442 
	C166.299637,192.119507 145.393753,180.350754 124.027153,189.463470 
M37.243519,253.127014 
	C37.828110,253.752029 38.382774,254.880310 39.002335,254.917160 
	C42.114613,255.102203 45.243847,255.002045 48.937759,255.002045 
	C48.937759,235.225784 48.937759,215.859772 48.937759,196.111908 
	C53.940968,196.111908 58.370140,196.111908 62.846115,196.111908 
	C62.846115,192.944824 62.846115,190.172119 62.846115,186.871948 
	C58.102020,186.871948 53.542934,186.871948 48.844032,186.871948 
	C48.844032,183.517334 48.928539,180.691452 48.829094,177.872040 
	C48.442402,166.908951 52.130970,161.194153 64.358582,164.141739 
	C64.799965,164.248154 65.305038,164.090363 65.973831,164.041611 
	C66.712074,161.526123 67.445900,159.025650 68.163925,156.579041 
	C52.597202,149.342606 39.325001,156.624588 37.550549,173.087250 
	C37.301483,175.397995 37.294807,177.738052 37.243893,180.066025 
	C37.194672,182.316757 37.233227,184.569397 37.233227,186.726364 
	C33.501068,187.177612 30.441389,187.547546 27.403564,187.914841 
	C27.403564,190.907455 27.403564,193.366211 27.403564,196.322479 
	C30.660637,196.322479 33.743877,196.322479 37.234390,196.322479 
	C37.234390,215.275314 37.234390,233.731827 37.243519,253.127014 
M76.053726,232.491119 
	C76.267120,237.134705 75.986320,241.866852 76.799095,246.403046 
	C78.381302,255.233521 86.487259,258.631836 95.020966,254.031326 
	C94.132362,251.578217 93.491318,247.027954 92.248795,246.857300 
	C86.725273,246.098724 87.678947,242.301407 87.669952,239.017731 
	C87.599228,213.204742 87.629997,187.391449 87.629509,161.578262 
	C87.629478,159.796234 87.629509,158.014206 87.629509,156.298706 
	C83.453133,156.298706 79.872879,156.298706 76.053726,156.298706 
	C76.053726,181.578293 76.053726,206.536194 76.053726,232.491119 
M352.907135,206.893936 
	C352.937500,204.898666 353.030182,202.902084 352.988495,200.908310 
	C352.636719,184.090317 337.254761,172.828888 321.613220,176.440979 
	C301.724670,181.033844 293.617371,204.743149 308.378784,220.007950 
	C312.195679,223.955002 315.046356,228.454605 315.236816,234.430817 
	C315.286743,235.997253 317.994568,238.548828 319.733765,238.783951 
	C324.308502,239.402420 329.022766,238.940247 333.679749,239.015106 
	C337.121887,239.070419 338.425018,237.536133 339.164062,234.091446 
	C340.000488,230.192841 341.845917,226.425690 343.737915,222.858795 
	C346.480042,217.689285 349.657654,212.750793 352.907135,206.893936 
M337.098419,243.220505 
	C336.234070,242.482315 335.393463,241.140640 334.501465,241.105560 
	C329.367584,240.903625 324.220276,240.952759 319.080902,241.067932 
	C318.169189,241.088364 317.273376,241.819946 316.370239,242.223129 
	C316.434448,242.732681 316.498657,243.242218 316.562836,243.751755 
	C323.198242,243.751755 329.833618,243.751755 337.098419,243.220505 
M319.611053,251.324356 
	C321.574219,252.865677 323.499115,255.607529 325.509338,255.671539 
	C328.652374,255.771606 331.853149,254.059235 335.029449,253.114685 
	C334.875793,252.431549 334.722107,251.748398 334.568420,251.065262 
	C329.839783,251.065262 325.111115,251.065262 319.611053,251.324356 
M356.605347,236.067215 
	C358.008759,236.067215 359.412140,236.067215 360.815552,236.067215 
	C361.084656,235.430222 361.353760,234.793213 361.622894,234.156219 
	C358.678101,231.539673 355.801178,228.838501 352.733093,226.375595 
	C352.093872,225.862488 350.747253,226.230621 349.726624,226.192642 
	C349.745026,227.203781 349.349548,228.563721 349.855499,229.164032 
	C351.768585,231.434204 353.974152,233.457932 356.605347,236.067215 
M295.388123,172.901001 
	C293.837402,172.162048 292.286713,171.423111 290.735992,170.684158 
	C290.262726,171.347275 289.789459,172.010391 289.316162,172.673508 
	C292.487366,175.736328 295.588318,178.880432 298.919189,181.758453 
	C299.332733,182.115768 300.967163,181.060104 302.035828,180.659180 
	C302.344971,180.047287 302.654083,179.435394 302.963196,178.823486 
	C300.614471,177.018677 298.265747,175.213852 295.388123,172.901001 
M300.942780,226.064804 
	C297.867706,228.952911 294.792603,231.841019 290.583282,235.794357 
	C293.365906,236.187836 295.121490,236.973663 295.764618,236.433929 
	C298.544189,234.101242 301.056671,231.432205 303.461853,228.705246 
	C303.658020,228.482849 302.313354,226.901459 300.942780,226.064804 
M363.358154,173.116928 
	C362.549408,172.446259 361.704742,171.171188 360.938507,171.216675 
	C358.502197,171.361328 352.715851,178.624405 352.391815,181.934250 
	C358.070282,181.769897 360.050598,177.042160 363.358154,173.116928 
M294.969910,201.184448 
	C291.488342,201.128708 288.002167,200.958511 284.528564,201.099426 
	C283.682098,201.133728 282.877045,202.189804 282.052948,202.776108 
	C282.887817,203.512054 283.672638,204.801758 284.566742,204.882614 
	C287.530273,205.150650 290.564850,205.221954 293.501129,204.832870 
	C294.348663,204.720551 294.957062,202.803741 294.969910,201.184448 
M357.277832,203.411057 
	C361.676361,203.842270 366.071686,204.321930 370.479370,204.615723 
	C370.844788,204.640076 371.526123,203.437729 371.618500,202.746277 
	C371.675232,202.321747 370.857697,201.339249 370.487946,201.366150 
	C366.079315,201.686905 361.681030,202.150330 357.277832,203.411057 
M325.000031,162.607605 
	C325.007690,164.416245 324.763641,166.276520 325.119934,168.013657 
	C325.325012,169.013504 326.501709,169.814072 327.241058,170.704346 
	C327.819366,169.817795 328.828003,168.963150 328.896515,168.038818 
	C329.114655,165.095078 329.152618,162.110443 328.893311,159.174026 
	C328.804230,158.165207 327.634735,157.251785 326.958832,156.294785 
	C326.309845,157.278915 325.507812,158.199860 325.066010,159.269577 
	C324.775360,159.973282 325.003998,160.891495 325.000031,162.607605 
M319.963715,246.030685 
	C319.367371,246.621292 318.771057,247.211899 318.174744,247.802521 
	C318.981781,248.197433 319.780945,248.913788 320.597168,248.933792 
	C325.072693,249.043518 329.554291,249.049805 334.028992,248.922333 
	C334.902924,248.897430 335.755615,248.126007 336.618103,247.698898 
	C336.545624,247.134232 336.473175,246.569580 336.400696,246.004913 
	C331.225372,246.004913 326.050049,246.004913 319.963715,246.030685 
z"/>
<path fill="#272727" opacity="1.000000" stroke="none" 
	d="
M252.998932,254.833801 
	C248.518906,254.833801 244.038895,254.833801 239.129181,254.833801 
	C234.648071,236.369385 230.161011,217.880417 225.679214,199.413162 
	C221.143143,217.961990 216.624252,236.440506 212.110413,254.898392 
	C207.166687,254.898392 202.689178,254.898392 197.808655,254.898392 
	C191.597488,232.398727 185.386673,209.900314 179.105835,187.148300 
	C183.155365,187.148300 186.797592,187.148300 191.163834,187.148300 
	C195.708389,205.714127 200.296478,224.457764 205.179489,244.406265 
	C210.134048,224.685089 214.819977,206.033203 219.544785,187.226532 
	C223.763504,187.226532 227.714996,187.226532 232.260666,187.226532 
	C237.037796,205.866364 241.867996,224.713333 246.698212,243.560287 
	C246.973099,243.585571 247.247986,243.610840 247.522888,243.636124 
	C248.875626,237.628860 250.228348,231.621597 252.086716,225.600128 
	C252.727875,235.335205 252.863403,245.084503 252.998932,254.833801 
z"/>
<path fill="#272727" opacity="1.000000" stroke="none" 
	d="
M124.354416,189.283966 
	C145.393753,180.350754 166.299637,192.119507 168.742096,214.515442 
	C169.480042,221.282043 168.891876,228.594620 167.085007,235.154068 
	C163.293671,248.917694 151.480881,257.128998 137.765182,257.005432 
	C124.386169,256.884918 113.255150,248.374634 108.915764,234.948471 
	C103.047272,216.791229 109.146080,198.433945 124.354416,189.283966 
M120.085258,232.052490 
	C120.763893,233.746841 121.297935,235.517670 122.146645,237.122055 
	C125.504822,243.470306 130.612976,247.363434 137.991425,247.419281 
	C145.576950,247.476715 151.139374,243.725571 154.192291,236.976807 
	C159.048553,226.241577 159.196869,215.231323 153.423370,204.824493 
	C146.476822,192.303192 130.251373,192.325211 122.989159,204.662643 
	C118.075790,213.009750 117.988457,222.035126 120.085258,232.052490 
z"/>
<path fill="#2A2A2A" opacity="1.000000" stroke="none" 
	d="
M37.238953,252.657684 
	C37.234390,233.731827 37.234390,215.275314 37.234390,196.322479 
	C33.743877,196.322479 30.660637,196.322479 27.403564,196.322479 
	C27.403564,193.366211 27.403564,190.907455 27.403564,187.914841 
	C30.441389,187.547546 33.501068,187.177612 37.233227,186.726364 
	C37.233227,184.569397 37.194672,182.316757 37.243893,180.066025 
	C37.294807,177.738052 37.301483,175.397995 37.550549,173.087250 
	C39.325001,156.624588 52.597202,149.342606 68.163925,156.579041 
	C67.445900,159.025650 66.712074,161.526123 65.973831,164.041611 
	C65.305038,164.090363 64.799965,164.248154 64.358582,164.141739 
	C52.130970,161.194153 48.442402,166.908951 48.829094,177.872040 
	C48.928539,180.691452 48.844032,183.517334 48.844032,186.871948 
	C53.542934,186.871948 58.102020,186.871948 62.846115,186.871948 
	C62.846115,190.172119 62.846115,192.944824 62.846115,196.111908 
	C58.370140,196.111908 53.940968,196.111908 48.937759,196.111908 
	C48.937759,215.859772 48.937759,235.225784 48.937759,255.002045 
	C45.243847,255.002045 42.114613,255.102203 39.002335,254.917160 
	C38.382774,254.880310 37.828110,253.752029 37.238953,252.657684 
z"/>
<path fill="#2D2D2D" opacity="1.000000" stroke="none" 
	d="
M76.053726,231.992599 
	C76.053726,206.536194 76.053726,181.578293 76.053726,156.298706 
	C79.872879,156.298706 83.453133,156.298706 87.629509,156.298706 
	C87.629509,158.014206 87.629478,159.796234 87.629509,161.578262 
	C87.629997,187.391449 87.599228,213.204742 87.669952,239.017731 
	C87.678947,242.301407 86.725273,246.098724 92.248795,246.857300 
	C93.491318,247.027954 94.132362,251.578217 95.020966,254.031326 
	C86.487259,258.631836 78.381302,255.233521 76.799095,246.403046 
	C75.986320,241.866852 76.267120,237.134705 76.053726,231.992599 
z"/>
<path fill="#F9D97F" opacity="1.000000" stroke="none" 
	d="
M352.778320,207.303833 
	C349.657654,212.750793 346.480042,217.689285 343.737915,222.858795 
	C341.845917,226.425690 340.000488,230.192841 339.164062,234.091446 
	C338.425018,237.536133 337.121887,239.070419 333.679749,239.015106 
	C329.022766,238.940247 324.308502,239.402420 319.733765,238.783951 
	C317.994568,238.548828 315.286743,235.997253 315.236816,234.430817 
	C315.046356,228.454605 312.195679,223.955002 308.378784,220.007950 
	C293.617371,204.743149 301.724670,181.033844 321.613220,176.440979 
	C337.254761,172.828888 352.636719,184.090317 352.988495,200.908310 
	C353.030182,202.902084 352.937500,204.898666 352.778320,207.303833 
M348.613922,205.772736 
	C350.882202,191.622955 339.830841,180.050827 326.855988,180.223541 
	C317.487183,180.348251 310.350800,185.387314 306.712158,194.621765 
	C303.322113,203.225174 305.733978,210.524963 311.542694,216.944229 
	C315.288971,221.084290 318.398834,225.318588 319.165741,231.066910 
	C319.313904,232.177567 321.130951,233.808136 322.288849,233.907410 
	C326.362244,234.256592 330.483856,234.043060 334.679413,234.043060 
	C334.922974,226.887161 338.530121,222.038635 342.256134,217.092056 
	C344.671661,213.885315 346.260925,210.056229 348.613922,205.772736 
z"/>
<path fill="#282827" opacity="1.000000" stroke="none" 
	d="
M253.357178,254.826996 
	C252.863403,245.084503 252.727875,235.335205 252.294708,225.292297 
	C255.000305,212.416199 258.003571,199.833725 261.029510,187.156174 
	C264.770050,187.156174 268.231537,187.156174 272.304352,187.156174 
	C269.508514,197.600693 266.838562,207.802460 264.040527,217.968964 
	C260.655457,230.268295 257.161987,242.537781 253.357178,254.826996 
z"/>
<path fill="#F9D980" opacity="1.000000" stroke="none" 
	d="
M336.783722,243.486130 
	C329.833618,243.751755 323.198242,243.751755 316.562836,243.751755 
	C316.498657,243.242218 316.434448,242.732681 316.370239,242.223129 
	C317.273376,241.819946 318.169189,241.088364 319.080902,241.067932 
	C324.220276,240.952759 329.367584,240.903625 334.501465,241.105560 
	C335.393463,241.140640 336.234070,242.482315 336.783722,243.486130 
z"/>
<path fill="#F9D980" opacity="1.000000" stroke="none" 
	d="
M319.996765,251.194809 
	C325.111115,251.065262 329.839783,251.065262 334.568420,251.065262 
	C334.722107,251.748398 334.875793,252.431549 335.029449,253.114685 
	C331.853149,254.059235 328.652374,255.771606 325.509338,255.671539 
	C323.499115,255.607529 321.574219,252.865677 319.996765,251.194809 
z"/>
<path fill="#F9D980" opacity="1.000000" stroke="none" 
	d="
M356.337830,235.820541 
	C353.974152,233.457932 351.768585,231.434204 349.855499,229.164032 
	C349.349548,228.563721 349.745026,227.203781 349.726624,226.192657 
	C350.747253,226.230621 352.093872,225.862488 352.733093,226.375595 
	C355.801178,228.838501 358.678101,231.539673 361.622894,234.156219 
	C361.353760,234.793213 361.084656,235.430222 360.815552,236.067215 
	C359.412140,236.067215 358.008759,236.067215 356.337830,235.820541 
z"/>
<path fill="#F9D980" opacity="1.000000" stroke="none" 
	d="
M295.652588,173.155029 
	C298.265747,175.213852 300.614471,177.018677 302.963196,178.823486 
	C302.654083,179.435394 302.344971,180.047287 302.035828,180.659180 
	C300.967163,181.060104 299.332733,182.115768 298.919189,181.758453 
	C295.588318,178.880432 292.487366,175.736328 289.316162,172.673508 
	C289.789459,172.010391 290.262726,171.347275 290.735992,170.684158 
	C292.286713,171.423111 293.837402,172.162048 295.652588,173.155029 
z"/>
<path fill="#F9D980" opacity="1.000000" stroke="none" 
	d="
M301.313721,226.008179 
	C302.313354,226.901459 303.658020,228.482849 303.461853,228.705246 
	C301.056671,231.432205 298.544189,234.101242 295.764618,236.433929 
	C295.121490,236.973663 293.365906,236.187836 290.583282,235.794357 
	C294.792603,231.841019 297.867706,228.952911 301.313721,226.008179 
z"/>
<path fill="#F9D980" opacity="1.000000" stroke="none" 
	d="
M363.214417,173.431580 
	C360.050598,177.042160 358.070282,181.769897 352.391815,181.934250 
	C352.715851,178.624405 358.502197,171.361328 360.938507,171.216675 
	C361.704742,171.171188 362.549408,172.446259 363.214417,173.431580 
z"/>
<path fill="#F9D980" opacity="1.000000" stroke="none" 
	d="
M295.322510,201.449341 
	C294.957062,202.803741 294.348663,204.720551 293.501129,204.832870 
	C290.564850,205.221954 287.530273,205.150650 284.566742,204.882614 
	C283.672638,204.801758 282.887817,203.512054 282.052948,202.776093 
	C282.877045,202.189804 283.682098,201.133728 284.528564,201.099426 
	C288.002167,200.958511 291.488342,201.128708 295.322510,201.449341 
z"/>
<path fill="#F9D980" opacity="1.000000" stroke="none" 
	d="
M357.278931,202.993713 
	C361.681030,202.150330 366.079315,201.686905 370.487946,201.366150 
	C370.857697,201.339249 371.675232,202.321747 371.618500,202.746277 
	C371.526123,203.437729 370.844788,204.640076 370.479370,204.615723 
	C366.071686,204.321930 361.676361,203.842270 357.278931,202.993713 
z"/>
<path fill="#F9D980" opacity="1.000000" stroke="none" 
	d="
M325.000061,162.160614 
	C325.003998,160.891495 324.775360,159.973282 325.066010,159.269577 
	C325.507812,158.199860 326.309845,157.278915 326.958832,156.294800 
	C327.634735,157.251785 328.804230,158.165207 328.893311,159.174026 
	C329.152618,162.110443 329.114655,165.095078 328.896515,168.038818 
	C328.828003,168.963150 327.819366,169.817795 327.241058,170.704346 
	C326.501709,169.814072 325.325012,169.013504 325.119934,168.013657 
	C324.763641,166.276520 325.007690,164.416245 325.000061,162.160614 
z"/>
<path fill="#F9D980" opacity="1.000000" stroke="none" 
	d="
M320.419220,246.017792 
	C326.050049,246.004913 331.225372,246.004913 336.400696,246.004913 
	C336.473175,246.569580 336.545624,247.134232 336.618103,247.698898 
	C335.755615,248.126007 334.902924,248.897430 334.028992,248.922333 
	C329.554291,249.049805 325.072693,249.043518 320.597168,248.933792 
	C319.780945,248.913788 318.981781,248.197433 318.174744,247.802521 
	C318.771057,247.211899 319.367371,246.621292 320.419220,246.017792 
z"/>
<path fill="#FDFDFD" opacity="1.000000" stroke="none" 
	d="
M120.019287,231.642883 
	C117.988457,222.035126 118.075790,213.009750 122.989159,204.662643 
	C130.251373,192.325211 146.476822,192.303192 153.423370,204.824493 
	C159.196869,215.231323 159.048553,226.241577 154.192291,236.976807 
	C151.139374,243.725571 145.576950,247.476715 137.991425,247.419281 
	C130.612976,247.363434 125.504822,243.470306 122.146645,237.122055 
	C121.297935,235.517670 120.763893,233.746841 120.019287,231.642883 
z"/>
<path fill="#E6A715" opacity="1.000000" stroke="none" 
	d="
M348.417175,206.139374 
	C346.260925,210.056229 344.671661,213.885315 342.256134,217.092056 
	C338.530121,222.038635 334.922974,226.887161 334.679413,234.043060 
	C330.483856,234.043060 326.362244,234.256592 322.288849,233.907410 
	C321.130951,233.808136 319.313904,232.177567 319.165741,231.066910 
	C318.398834,225.318588 315.288971,221.084290 311.542694,216.944229 
	C305.733978,210.524963 303.322113,203.225174 306.712158,194.621765 
	C310.350800,185.387314 317.487183,180.348251 326.855988,180.223541 
	C339.830841,180.050827 350.882202,191.622955 348.417175,206.139374 
M311.388702,200.520706 
	C312.207550,199.753250 313.492035,199.124908 313.769623,198.195755 
	C315.562134,192.195816 319.836761,189.029816 325.504852,187.223312 
	C326.717621,186.836761 327.811188,186.076248 329.721466,185.097839 
	C323.339691,183.374207 317.157837,185.380524 314.088837,190.064819 
	C312.146790,193.029037 308.627106,195.736954 311.388702,200.520706 
z"/>
<path fill="#F9D980" opacity="1.000000" stroke="none" 
	d="
M311.088928,200.332077 
	C308.627106,195.736954 312.146790,193.029037 314.088837,190.064819 
	C317.157837,185.380524 323.339691,183.374207 329.721466,185.097839 
	C327.811188,186.076248 326.717621,186.836761 325.504852,187.223312 
	C319.836761,189.029816 315.562134,192.195816 313.769623,198.195755 
	C313.492035,199.124908 312.207550,199.753250 311.088928,200.332077 
z"/>
</svg>